<svg xmlns="http://www.w3.org/2000/svg" xmlns:xlink="http://www.w3.org/1999/xlink" id="el_Hy4kzRL0iQ" viewBox="0 0 80 80"><style>@-webkit-keyframes el_S1Okz080om_Animation{0%{opacity: 0;}40%{opacity: 1;}75%{opacity: 0;}100%{opacity: 0;}}@keyframes el_S1Okz080om_Animation{0%{opacity: 0;}40%{opacity: 1;}75%{opacity: 0;}100%{opacity: 0;}}@-webkit-keyframes el_BySkMAURjQ_HkK8R8AoQ_Animation{25%{-webkit-transform: translate(41.630319595336914px, 40.29807424545288px) rotate(0deg) translate(-41.630319595336914px, -40.29807424545288px);transform: translate(41.630319595336914px, 40.29807424545288px) rotate(0deg) translate(-41.630319595336914px, -40.29807424545288px);}50%{-webkit-transform: translate(41.630319595336914px, 40.29807424545288px) rotate(360deg) translate(-41.630319595336914px, -40.29807424545288px);transform: translate(41.630319595336914px, 40.29807424545288px) rotate(360deg) translate(-41.630319595336914px, -40.29807424545288px);}0%{-webkit-transform: translate(41.630319595336914px, 40.29807424545288px) rotate(0deg) translate(-41.630319595336914px, -40.29807424545288px);transform: translate(41.630319595336914px, 40.29807424545288px) rotate(0deg) translate(-41.630319595336914px, -40.29807424545288px);}100%{-webkit-transform: translate(41.630319595336914px, 40.29807424545288px) rotate(360deg) translate(-41.630319595336914px, -40.29807424545288px);transform: translate(41.630319595336914px, 40.29807424545288px) rotate(360deg) translate(-41.630319595336914px, -40.29807424545288px);}}@keyframes el_BySkMAURjQ_HkK8R8AoQ_Animation{25%{-webkit-transform: translate(41.630319595336914px, 40.29807424545288px) rotate(0deg) translate(-41.630319595336914px, -40.29807424545288px);transform: translate(41.630319595336914px, 40.29807424545288px) rotate(0deg) translate(-41.630319595336914px, -40.29807424545288px);}50%{-webkit-transform: translate(41.630319595336914px, 40.29807424545288px) rotate(360deg) translate(-41.630319595336914px, -40.29807424545288px);transform: translate(41.630319595336914px, 40.29807424545288px) rotate(360deg) translate(-41.630319595336914px, -40.29807424545288px);}0%{-webkit-transform: translate(41.630319595336914px, 40.29807424545288px) rotate(0deg) translate(-41.630319595336914px, -40.29807424545288px);transform: translate(41.630319595336914px, 40.29807424545288px) rotate(0deg) translate(-41.630319595336914px, -40.29807424545288px);}100%{-webkit-transform: translate(41.630319595336914px, 40.29807424545288px) rotate(360deg) translate(-41.630319595336914px, -40.29807424545288px);transform: translate(41.630319595336914px, 40.29807424545288px) rotate(360deg) translate(-41.630319595336914px, -40.29807424545288px);}}@-webkit-keyframes el_BySkMAURjQ_Hk6QCICjQ_Animation{0%{-webkit-transform: translate(41.630319595336914px, 40.29807424545288px) translate(-41.630319595336914px, -40.29807424545288px) translate(0px, 0px);transform: translate(41.630319595336914px, 40.29807424545288px) translate(-41.630319595336914px, -40.29807424545288px) translate(0px, 0px);}75%{-webkit-transform: translate(41.630319595336914px, 40.29807424545288px) translate(-41.630319595336914px, -40.29807424545288px) translate(0px, 0px);transform: translate(41.630319595336914px, 40.29807424545288px) translate(-41.630319595336914px, -40.29807424545288px) translate(0px, 0px);}100%{-webkit-transform: translate(41.630319595336914px, 40.29807424545288px) translate(-41.630319595336914px, -40.29807424545288px) translate(0px, 0px);transform: translate(41.630319595336914px, 40.29807424545288px) translate(-41.630319595336914px, -40.29807424545288px) translate(0px, 0px);}}@keyframes el_BySkMAURjQ_Hk6QCICjQ_Animation{0%{-webkit-transform: translate(41.630319595336914px, 40.29807424545288px) translate(-41.630319595336914px, -40.29807424545288px) translate(0px, 0px);transform: translate(41.630319595336914px, 40.29807424545288px) translate(-41.630319595336914px, -40.29807424545288px) translate(0px, 0px);}75%{-webkit-transform: translate(41.630319595336914px, 40.29807424545288px) translate(-41.630319595336914px, -40.29807424545288px) translate(0px, 0px);transform: translate(41.630319595336914px, 40.29807424545288px) translate(-41.630319595336914px, -40.29807424545288px) translate(0px, 0px);}100%{-webkit-transform: translate(41.630319595336914px, 40.29807424545288px) translate(-41.630319595336914px, -40.29807424545288px) translate(0px, 0px);transform: translate(41.630319595336914px, 40.29807424545288px) translate(-41.630319595336914px, -40.29807424545288px) translate(0px, 0px);}}#el_Hy4kzRL0iQ *{-webkit-animation-duration: 2s;animation-duration: 2s;-webkit-animation-iteration-count: infinite;animation-iteration-count: infinite;-webkit-animation-timing-function: cubic-bezier(0, 0, 1, 1);animation-timing-function: cubic-bezier(0, 0, 1, 1);}#el_BySkMAURjQ{fill: none;}#el_rkIyfALCs7{fill: #EFCE43;}#el_SkvyM08AoQ{-webkit-transform: translate(8px, 5.61px);transform: translate(8px, 5.61px);}#el_S1Okz080om{fill: #FFE36C;-webkit-animation-name: el_S1Okz080om_Animation;animation-name: el_S1Okz080om_Animation;-webkit-animation-timing-function: cubic-bezier(0.42, 0, 0.58, 1);animation-timing-function: cubic-bezier(0.42, 0, 0.58, 1);}#el_rkYJG0IAi7{stroke: #1A1C1E;stroke-width: 3;}#el_HJ5kzRLCjm{fill: #CCDAFF;}#el_S1jyM0LRsX{fill: #FFE36C;}#el_By31M0L0i7{stroke: #1A1C1E;stroke-width: 3;}#el_SyakM0LRjX{fill: #EFCE43;}#el_HJCJz0IRim{stroke: #1A1C1E;stroke-width: 3;}#el_Byke1MRIAsm{fill: #191C1E;}#el_BySkMAURjQ_Hk6QCICjQ{-webkit-animation-name: el_BySkMAURjQ_Hk6QCICjQ_Animation;animation-name: el_BySkMAURjQ_Hk6QCICjQ_Animation;-webkit-animation-timing-function: cubic-bezier(0.42, 0, 0.58, 1);animation-timing-function: cubic-bezier(0.42, 0, 0.58, 1);}#el_BySkMAURjQ_HkK8R8AoQ{-webkit-animation-name: el_BySkMAURjQ_HkK8R8AoQ_Animation;animation-name: el_BySkMAURjQ_HkK8R8AoQ_Animation;-webkit-animation-timing-function: cubic-bezier(0.42, 0, 0.58, 1);animation-timing-function: cubic-bezier(0.42, 0, 0.58, 1);}</style>
  <defs>
    <path id="a" d="M22.098309.45688138C9.6745534 2.40579148.10127893 13.1910585.11563953 26.0866667L.1352907 43.3623656c.01141827 9.7873741 5.54315323 18.3466959 13.6424269 22.7439795l24.5490739-.000001-.074674-65.64946238H22.0983068l.0000022-.4e-7z"/>
  </defs>
  <g id="el_BySkMAURjQ_Hk6QCICjQ" data-animator-group="true" data-animator-type="0"><g id="el_BySkMAURjQ_HkK8R8AoQ" data-animator-group="true" data-animator-type="1"><g fill-rule="evenodd" id="el_BySkMAURjQ">
    <path d="M46.3301221 74.8433656l-12.1436628.0135484c-14.312093.0165591-26.03476744-11.632043-26.05063953-25.8849463L8.1161686 31.6962688C8.0995407 17.4433656 19.7957616 5.76917204 34.1078547 5.7526129l12.1436627-.01354838.0786047 69.10430108z" id="el_rkIyfALCs7"/>
    <g id="el_SkvyM08AoQ">
      <mask id="b" fill="#fff">
        <use xlink:href="#a"/>
      </mask>
      <path d="M-4.53488372 3.91247312H71.7955233V.45688172H-4.53488372m0 10.36602148H71.7955233V7.36731183H-4.53488372m0 10.36602147H71.7955233v-3.4555914H-4.53488372m0 10.3660215H71.7955233v-3.4548387H-4.53488372m0 10.3652688H71.7955233v-3.4548387H-4.53488372m0 10.3652689H71.7955233v-3.4548388H-4.53488372m0 10.3652689H71.7955233v-3.4548387H-4.53488372m0 10.3652688H71.7955233v-3.4548387H-4.53488372m0 10.3652688H71.7955233v-3.4548387H-4.53488372m0 10.3652688H71.7955233v-3.4548387H-4.53488372" mask="url(#b)" id="el_S1Okz080om"/>
    </g>
    <path d="M46.2774419 74.8570648H34.1337791c-14.3120931 0-26.02191864-11.6613978-26.02191864-25.914301v-17.275699c0-14.2529032 11.70982554-25.91430105 26.02191864-25.91430105h12.1436628V74.8570648z" stroke-linecap="round" stroke-linejoin="round" id="el_rkYJG0IAi7"/>
    <path d="M46.3301977 74.8570648c-14.312093.0158065-26.0347675-11.632043-26.0513954-25.8849462l-.0196511-17.2756989C20.2432791 17.4435164 31.9395 5.7685702 46.251593 5.75276375 60.563686 5.7369573 72.2863605 17.3848068 72.3029884 31.63771l.0196511 17.2756989c.0158721 14.2529032-11.6803488 25.9278495-25.9924418 25.9436559" id="el_HJ5kzRLCjm"/>
    <path d="M46.3301977 74.8570648c-14.312093.0158065-26.0347675-11.632043-26.0513954-25.8849462l-.0196511-17.2756989C20.2432791 17.4435164 31.9395 5.7685702 46.251593 5.75276375 60.563686 5.7369573 72.2863605 17.3848068 72.3029884 31.63771l.0196511 17.2756989c.0158721 14.2529032-11.6803488 25.9278495-25.9924418 25.9436559" id="el_S1jyM0LRsX"/>
    <path d="M65.6314942 14.38684977C69.768064 18.9729788 72.2955058 25.0253444 72.303064 31.63771l.0196511 17.2756989c.0158721 14.2529032-11.6803488 25.9278495-25.9924418 25.9436559-14.3120931.0158065-26.0347675-11.632043-26.0513954-25.8849462m-.0195756-17.2759247C20.2434302 17.4432906 31.9396512 5.7690971 46.2517442 5.75253795c3.2333721-.00376345 6.3352325.58860215 9.1997674 1.67096774" stroke-linecap="round" stroke-linejoin="round" id="el_By31M0L0i7"/>
    <path d="M46.3203721 66.2189896c-9.5413954.0105376-17.3565116-7.7549463-17.3678488-17.2561291l-.0188954-17.2764516c-.0113372-9.5019355 7.7863954-17.28473117 17.3277907-17.2960215 9.5413954-.01053763 17.3565116 7.7549462 17.3678488 17.2568817l.0188954 17.2764516c.0113372 9.5011828-7.7863954 17.2847312-17.3277907 17.2952689" id="el_SyakM0LRjX"/>
    <path d="M46.3203721 66.2189896c-9.5413954.0105376-17.3565116-7.7549463-17.3678488-17.2561291l-.0188954-17.2764516c-.0113372-9.5019355 7.7863954-17.28473117 17.3277907-17.2960215 9.5413954-.01053763 17.3565116 7.7549462 17.3678488 17.2568817l.0098256 8.6634409.0090698 8.6130107c.0113372 9.5011828-7.7863954 17.2847312-17.3277907 17.2952689z" stroke-linecap="round" stroke-linejoin="round" id="el_HJCJz0IRim"/>
    <path d="M53.0624593 44.2014304H45.23525c-1.2009884 0-2.1775-.9732258-2.1775-2.1692473v-3.4555914c0-1.1960215.9765116-2.1684946 2.1775-2.1684946h7.8272093c1.6688372 0 3.0262791-1.3525807 3.0262791-3.0145161 0-1.6619355-1.3574419-3.0137635-3.0262791-3.0137635h-2.7783721v-1.880215c0-1.6619355-1.356686-3.0130108-3.0255232-3.0130108-1.6688373 0-3.0270349 1.3510753-3.0270349 3.0130108v1.947957c-4.0655233.4952688-7.2263372 3.9478494-7.2263372 8.1290322v3.4555914c0 4.1804301 3.1608139 7.6337634 7.2263372 8.1290323v1.9487096c0 1.6619355 1.3581976 3.0137635 3.0270349 3.0137635 1.6688372 0 3.0255232-1.351828 3.0255232-3.0137635v-1.8817204h2.7783721c1.6688372 0 3.0262791-1.3510753 3.0262791-3.0130107 0-1.6619355-1.3574419-3.0137635-3.0262791-3.0137635" id="el_Byke1MRIAsm"/>
  </g></g></g>
</svg>